<svg xmlns="http://www.w3.org/2000/svg" xmlns:xlink="http://www.w3.org/1999/xlink" viewBox="0,0,256,256" width="48px" height="48px" fill-rule="nonzero"><g fill="#333a56" fill-rule="nonzero" stroke="none" stroke-width="1" stroke-linecap="butt" stroke-linejoin="miter" stroke-miterlimit="10" stroke-dasharray="" stroke-dashoffset="0" font-family="none" font-weight="none" font-size="none" text-anchor="none" style="mix-blend-mode: normal"><g transform="scale(10.66667,10.66667)"><path d="M6.25,3c-1.77996,0 -3.25,1.47004 -3.25,3.25v11.5c0,1.77996 1.47004,3.25 3.25,3.25h11.5c1.77996,0 3.25,-1.47004 3.25,-3.25v-11.5c0,-1.77996 -1.47004,-3.25 -3.25,-3.25zM6.25,5.5h11.5c0.43004,0 0.75,0.31996 0.75,0.75v11.5c0,0.43004 -0.31996,0.75 -0.75,0.75h-11.5c-0.43004,0 -0.75,-0.31996 -0.75,-0.75v-11.5c0,-0.43004 0.31996,-0.75 0.75,-0.75zM8.18555,6.78516c-0.741,0 -1.18555,0.4442 -1.18555,1.0332c0,0.593 0.44438,1.03906 1.10938,1.03906c0.741,0 1.18164,-0.44606 1.18164,-1.03906c0,-0.588 -0.44047,-1.0332 -1.10547,-1.0332zM7.0625,9.96289v6.03711h2.17383v-6.03711zM11.0332,9.96289v6.03711h2.17383v-3.30273c0,-0.979 0.70111,-1.12305 0.91211,-1.12305c0.211,0 0.77344,0.21105 0.77344,1.12305v3.30273h2.10742v-3.30273c0,-1.891 -0.84548,-2.73438 -1.89648,-2.73438c-1.051,0 -1.61349,0.34975 -1.89649,0.84375v-0.84375z"></path></g></g></svg>