<svg id="visual" viewBox="0 0 900 600" width="900" height="600" xmlns="http://www.w3.org/2000/svg" xmlns:xlink="http://www.w3.org/1999/xlink" version="1.1"><rect x="0" y="0" width="900" height="600" fill="#FFFFFF"></rect><path d="M0 483L90 491L180 498L270 487L360 484L450 485L540 459L630 467L720 454L810 466L900 485L900 601L810 601L720 601L630 601L540 601L450 601L360 601L270 601L180 601L90 601L0 601Z" fill="#52658f"></path><path d="M0 498L90 517L180 488L270 497L360 482L450 487L540 518L630 485L720 510L810 476L900 489L900 601L810 601L720 601L630 601L540 601L450 601L360 601L270 601L180 601L90 601L0 601Z" fill="#4b5a80"></path><path d="M0 536L90 529L180 519L270 540L360 517L450 514L540 531L630 533L720 534L810 527L900 531L900 601L810 601L720 601L630 601L540 601L450 601L360 601L270 601L180 601L90 601L0 601Z" fill="#434f72"></path><path d="M0 532L90 541L180 528L270 547L360 552L450 537L540 537L630 540L720 562L810 528L900 543L900 601L810 601L720 601L630 601L540 601L450 601L360 601L270 601L180 601L90 601L0 601Z" fill="#3b4464"></path><path d="M0 576L90 564L180 557L270 574L360 557L450 575L540 567L630 572L720 566L810 582L900 580L900 601L810 601L720 601L630 601L540 601L450 601L360 601L270 601L180 601L90 601L0 601Z" fill="#333a56"></path></svg>