<?xml version="1.0" encoding="UTF-8" standalone="no"?>
<svg
   id="visual"
   viewBox="0 0 900 124"
   width="900"
   height="124"
   version="1.1"
   sodipodi:docname="layered-peaks-haikei-edit.svg"
   inkscape:version="1.3.2 (091e20e, 2023-11-25, custom)"
   inkscape:export-filename="layered-peaks-haikei.png"
   inkscape:export-xdpi="409.60001"
   inkscape:export-ydpi="409.60001"
   xmlns:inkscape="http://www.inkscape.org/namespaces/inkscape"
   xmlns:sodipodi="http://sodipodi.sourceforge.net/DTD/sodipodi-0.dtd"
   xmlns="http://www.w3.org/2000/svg"
   xmlns:svg="http://www.w3.org/2000/svg">
  <defs
     id="defs5" />
  <sodipodi:namedview
     id="namedview5"
     pagecolor="#ffffff"
     bordercolor="#000000"
     borderopacity="0.25"
     inkscape:showpageshadow="2"
     inkscape:pageopacity="0.0"
     inkscape:pagecheckerboard="0"
     inkscape:deskcolor="#d1d1d1"
     inkscape:zoom="1.9506277"
     inkscape:cx="452.6748"
     inkscape:cy="21.018875"
     inkscape:window-width="1920"
     inkscape:window-height="1018"
     inkscape:window-x="-6"
     inkscape:window-y="-6"
     inkscape:window-maximized="1"
     inkscape:current-layer="visual" />
  <path
     d="M 0,52.456604 89.999999,58.866326 180,64.474832 l 90,-8.813368 90,-2.403644 90,0.801215 90,-20.831596 90,6.409722 90,-10.415798 90,9.614582 90,15.22309 V 147 H 810 720 630 540 450 360 270 180 89.999999 0 Z"
     fill="#52658f"
     id="path1"
     style="stroke-width:0.895106" />
  <path
     d="M 0,61.741981 89.999999,77.469189 180,53.464503 l 90,7.449731 90,-12.416217 90,4.138739 90,25.66018 90,-27.315676 90,20.693695 90,-28.143424 90,10.760721 V 147 H 810 720 630 540 450 360 270 180 89.999999 0 Z"
     fill="#4b5a80"
     id="path2"
     style="stroke-width:0.909804" />
  <path
     d="M 0,87.745277 89.999999,81.363999 180,72.247888 l 90,19.143834 90,-20.967056 90,-2.734834 90,15.497389 90,1.823223 90,0.911611 90,-6.381278 90,3.646444 V 147 H 810 720 630 540 450 360 270 180 89.999999 0 Z"
     fill="#434f72"
     id="path3"
     style="stroke-width:0.954783" />
  <path
     d="M 0,85.753036 89.999999,93.741767 180,82.202488 l 90,16.865102 90,4.43819 90,-13.314558 h 90 l 90,2.662912 90,19.528016 90,-30.179662 90,13.314554 V 147 H 810 720 630 540 450 360 270 180 89.999999 0 Z"
     fill="#3b4464"
     id="path4"
     style="stroke-width:0.942145" />
  <path
     d="M 0,114.51989 89.999999,109.51065 180,106.58859 l 90,7.09643 90,-7.09643 90,7.51386 90,-3.33949 90,2.08719 90,-2.50463 90,6.67899 90,-0.83487 v 8.76617 H 810 720 630 540 450 360 270 180 89.999999 0 Z"
     fill="#333a56"
     id="path5"
     style="stroke-width:0.646093" />
</svg>
